<svg xmlns="http://www.w3.org/2000/svg" viewBox="0 0 24 24" width="100%" height="100%">
  <!-- Сплошной силуэт бабла с внутренним окном -->
  <path 
    fill-rule="evenodd" 
    clip-rule="evenodd" 
    d="M6 3C4.34315 3 3 4.34315 3 6V17C3 18.6569 4.34315 20 6 20H11L12.5 22.5V20H15C17.7614 20 20 17.7614 20 15V7C20 4.79086 18.2091 3 16 3H6ZM6 6.5C6 5.94772 6.44772 5.5 7 5.5H14C14.5523 5.5 15 5.94772 15 6.5V13C15 13.5523 14.5523 14 14 14H11.5L10 16.5V14H7C6.44772 14 6 13.5523 6 13V6.5Z" 
    fill="#5ce1e6" 
  />
</svg>
